<svg width="14" height="14" viewBox="0 0 14 14" fill="none" xmlns="http://www.w3.org/2000/svg">
<g clip-path="url(#clip0_1_10)">
<path d="M8.575 3.67498C8.46812 3.78402 8.40825 3.93062 8.40825 4.08331C8.40825 4.236 8.46812 4.3826 8.575 4.49164L9.50834 5.42498C9.61738 5.53186 9.76398 5.59173 9.91667 5.59173C10.0694 5.59173 10.216 5.53186 10.325 5.42498L12.1368 3.61373C12.3235 3.42589 12.6403 3.48539 12.7103 3.74089C12.8865 4.3819 12.8765 5.05985 12.6815 5.69541C12.4865 6.33096 12.1146 6.89784 11.6091 7.3297C11.1037 7.76156 10.4858 8.04055 9.82757 8.13402C9.16937 8.22748 8.49817 8.13156 7.8925 7.85748L3.27834 12.4716C3.04627 12.7036 2.73156 12.8339 2.40342 12.8339C2.07529 12.8338 1.76061 12.7034 1.52863 12.4714C1.29664 12.2393 1.16634 11.9246 1.1664 11.5964C1.16645 11.2683 1.29686 10.9536 1.52892 10.7216L6.14309 6.10748C5.869 5.50181 5.77308 4.83061 5.86655 4.17241C5.96001 3.51422 6.239 2.89626 6.67086 2.39084C7.10273 1.88541 7.6696 1.51344 8.30516 1.31844C8.94071 1.12344 9.61866 1.11348 10.2597 1.28973C10.5152 1.35973 10.5747 1.67589 10.3874 1.86373L8.575 3.67498Z" stroke="#DF202E" stroke-width="1.16667" stroke-linecap="round" stroke-linejoin="round"/>
</g>
<defs>
<clipPath id="clip0_1_10">
<rect width="14" height="14" fill="white"/>
</clipPath>
</defs>
</svg>
